<?xml version="1.0" encoding="UTF-8" standalone="no"?>
<svg
   xmlns:dc="http://purl.org/dc/elements/1.1/"
   xmlns:cc="http://creativecommons.org/ns#"
   xmlns:rdf="http://www.w3.org/1999/02/22-rdf-syntax-ns#"
   xmlns:svg="http://www.w3.org/2000/svg"
   xmlns="http://www.w3.org/2000/svg"
   xmlns:sodipodi="http://sodipodi.sourceforge.net/DTD/sodipodi-0.dtd"
   xmlns:inkscape="http://www.inkscape.org/namespaces/inkscape"
   aria-hidden="true"
   focusable="false"
   data-prefix="fad"
   data-icon="calendar"
   class="svg-inline--fa fa-calendar fa-w-14"
   role="img"
   viewBox="0 0 512 512"
   version="1.1"
   id="svg8"
   sodipodi:docname="calender_icon.svg"
   width="512"
   height="512"
   inkscape:version="1.0.2 (e86c870879, 2021-01-15, custom)"
   inkscape:export-filename="C:\Users\Adrian\Documents\projects\schedule\schedul_icon.png"
   inkscape:export-xdpi="96"
   inkscape:export-ydpi="96">
  <metadata
     id="metadata14">
    <rdf:RDF>
      <cc:Work
         rdf:about="">
        <dc:format>image/svg+xml</dc:format>
        <dc:type
           rdf:resource="http://purl.org/dc/dcmitype/StillImage" />
        <dc:title></dc:title>
      </cc:Work>
    </rdf:RDF>
  </metadata>
  <defs
     id="defs12">
    <rect
       x="160.2396"
       y="236.50337"
       width="130.24823"
       height="155.95512"
       id="rect849" />
    <rect
       x="120.82237"
       y="207.3689"
       width="230.5051"
       height="274.2068"
       id="rect843" />
  </defs>
  <sodipodi:namedview
     pagecolor="#ffffff"
     bordercolor="#666666"
     borderopacity="1"
     objecttolerance="10"
     gridtolerance="10"
     guidetolerance="10"
     inkscape:pageopacity="0"
     inkscape:pageshadow="2"
     inkscape:window-width="1920"
     inkscape:window-height="1010"
     id="namedview10"
     showgrid="false"
     inkscape:zoom="1.1670024"
     inkscape:cx="182.59771"
     inkscape:cy="278.12964"
     inkscape:window-x="-7"
     inkscape:window-y="-7"
     inkscape:window-maximized="1"
     inkscape:current-layer="svg8" />
  <path
     class="fa-secondary"
     fill="currentColor"
     d="m 40.140514,194.32586 v 262.11509 a 46.255604,46.255604 0 0 0 46.255604,46.25561 H 425.60388 a 46.255604,46.255604 0 0 0 46.25561,-46.25561 V 194.32586 Z M 333.09267,132.65172 h 30.83707 a 15.418535,15.418535 0 0 0 15.41854,-15.41853 V 24.721979 A 15.418535,15.418535 0 0 0 363.92974,9.3034445 H 333.09267 A 15.418535,15.418535 0 0 0 317.67414,24.721979 v 92.511211 a 15.418535,15.418535 0 0 0 15.41853,15.41853 z m -185.02241,0 h 30.83707 a 15.418535,15.418535 0 0 0 15.41853,-15.41853 V 24.721979 A 15.418535,15.418535 0 0 0 178.90733,9.3034445 H 148.07026 A 15.418535,15.418535 0 0 0 132.65172,24.721979 v 92.511211 a 15.418535,15.418535 0 0 0 15.41854,15.41853 z"
     opacity="0.4"
     id="path2"
     style="stroke-width:0.963658;fill:#318df0;fill-opacity:1" />
  <path
     class="fa-primary"
     fill="currentColor"
     d="m 471.85949,117.23319 v 77.09267 H 40.140514 V 117.23319 A 46.255604,46.255604 0 0 1 86.396118,70.977583 h 46.255602 v 46.255607 a 15.418535,15.418535 0 0 0 15.41854,15.41853 h 30.83707 a 15.418535,15.418535 0 0 0 15.41853,-15.41853 V 70.977583 h 123.34828 v 46.255607 a 15.418535,15.418535 0 0 0 15.41853,15.41853 h 30.83707 a 15.418535,15.418535 0 0 0 15.41854,-15.41853 V 70.977583 h 46.2556 a 46.255604,46.255604 0 0 1 46.25561,46.255607 z"
     id="path4"
     style="stroke-width:0.963658;fill:#0000ff;fill-opacity:1" />
</svg>
